<mxfile host="app.diagrams.net" modified="2024-01-07T14:13:39.016Z" agent="Mozilla/5.0 (Windows NT 10.0; Win64; x64; rv:121.0) Gecko/20100101 Firefox/121.0" etag="vFV5ofU6ohAm-1E99lrP" version="22.1.17" type="device">
  <diagram name="Page-1" id="nF7_c1ywtF9OxWJ89rcm">
    <mxGraphModel dx="1050" dy="626" grid="1" gridSize="10" guides="1" tooltips="1" connect="1" arrows="1" fold="1" page="1" pageScale="1" pageWidth="827" pageHeight="1169" math="1" shadow="0">
      <root>
        <mxCell id="0" />
        <mxCell id="1" parent="0" />
        <mxCell id="q-QPIl1MI8_y46bga7vd-1" value="" style="endArrow=classic;html=1;rounded=0;strokeWidth=3;fillColor=#f5f5f5;strokeColor=#666666;" edge="1" parent="1">
          <mxGeometry width="50" height="50" relative="1" as="geometry">
            <mxPoint x="110" y="360" as="sourcePoint" />
            <mxPoint x="600" y="360" as="targetPoint" />
          </mxGeometry>
        </mxCell>
        <mxCell id="q-QPIl1MI8_y46bga7vd-2" value="" style="endArrow=classic;html=1;rounded=0;strokeWidth=3;fillColor=#f5f5f5;strokeColor=#666666;" edge="1" parent="1" target="q-QPIl1MI8_y46bga7vd-4">
          <mxGeometry width="50" height="50" relative="1" as="geometry">
            <mxPoint x="160" y="440" as="sourcePoint" />
            <mxPoint x="160" y="120" as="targetPoint" />
          </mxGeometry>
        </mxCell>
        <mxCell id="q-QPIl1MI8_y46bga7vd-3" value="" style="curved=1;endArrow=none;html=1;rounded=0;endFill=0;strokeWidth=3;fillColor=#dae8fc;strokeColor=#6c8ebf;" edge="1" parent="1" source="q-QPIl1MI8_y46bga7vd-6">
          <mxGeometry width="50" height="50" relative="1" as="geometry">
            <mxPoint x="200" y="340" as="sourcePoint" />
            <mxPoint x="560" y="280" as="targetPoint" />
            <Array as="points">
              <mxPoint x="230" y="190" />
              <mxPoint x="300" y="270" />
              <mxPoint x="380" y="160" />
              <mxPoint x="440" y="320" />
              <mxPoint x="510" y="70" />
            </Array>
          </mxGeometry>
        </mxCell>
        <mxCell id="q-QPIl1MI8_y46bga7vd-4" value="$$ f(x) $$" style="text;html=1;strokeColor=none;fillColor=none;align=center;verticalAlign=middle;whiteSpace=wrap;rounded=0;fontSize=17;" vertex="1" parent="1">
          <mxGeometry x="130" y="80" width="60" height="30" as="geometry" />
        </mxCell>
        <mxCell id="q-QPIl1MI8_y46bga7vd-5" value="$$x$$" style="text;html=1;strokeColor=none;fillColor=none;align=center;verticalAlign=middle;whiteSpace=wrap;rounded=0;fontSize=17;" vertex="1" parent="1">
          <mxGeometry x="600" y="340" width="50" height="30" as="geometry" />
        </mxCell>
        <mxCell id="q-QPIl1MI8_y46bga7vd-7" value="" style="curved=1;endArrow=none;html=1;rounded=0;endFill=0;strokeWidth=3;fillColor=#dae8fc;strokeColor=#6c8ebf;" edge="1" parent="1" target="q-QPIl1MI8_y46bga7vd-6">
          <mxGeometry width="50" height="50" relative="1" as="geometry">
            <mxPoint x="200" y="340" as="sourcePoint" />
            <mxPoint x="560" y="280" as="targetPoint" />
            <Array as="points" />
          </mxGeometry>
        </mxCell>
        <mxCell id="q-QPIl1MI8_y46bga7vd-6" value="" style="ellipse;whiteSpace=wrap;html=1;aspect=fixed;fillColor=#ffedb5;strokeColor=#c0c0c0;strokeWidth=3;" vertex="1" parent="1">
          <mxGeometry x="215" y="240" width="10" height="10" as="geometry" />
        </mxCell>
        <mxCell id="q-QPIl1MI8_y46bga7vd-8" value="" style="ellipse;whiteSpace=wrap;html=1;aspect=fixed;fillColor=#f8cecc;strokeColor=#b85450;strokeWidth=3;" vertex="1" parent="1">
          <mxGeometry x="498" y="143" width="10" height="10" as="geometry" />
        </mxCell>
      </root>
    </mxGraphModel>
  </diagram>
</mxfile>
